{"title":"ABCD_Any_Body_Can_Dance_DVDRip_XviD_1xCD_MTR_Dev_","uid":8409669,"size":736848955,"categoryP":"video","categoryS":"movies","magnet":"?xt=urn:btih:1a9c295336238a0c4535e24de8b9df135815290e&amp;dn=ABCD_Any_Body_Can_Dance_DVDRip_XviD_1xCD_MTR_Dev_&amp;tr=udp%3A%2F%2Ftracker.openbittorrent.com%3A80&amp;tr=udp%3A%2F%2Fopen.demonii.com%3A1337&amp;tr=udp%3A%2F%2Ftracker.coppersurfer.tk%3A6969&amp;tr=udp%3A%2F%2Fexodus.desync.com%3A6969","seeders":1,"leechers":0,"uploader":"Devdeep","files":12,"time":1366888421,"description":"General\n Complete name : ABCD (Any Boy Can Dance) (2013) - 1CD - DVDRip - XviD [ExD-ExclusivE].avi\n Format : AVI\n Format/Info : Audio Video Interleave\n File size : 701 MiB\n Duration : 2h 23mn\n Overall bit rate : 684 Kbps\n\n Video\n ID : 0\n Format : MPEG-4 Visual\n Format profile : Advanced Simple@L5\n Format settings, BVOP : 2\n Format settings, QPel : No\n Format settings, GMC : No warppoints\n Format settings, Matrix : Default (H.263)\n Codec ID : XVID\n Codec ID/Hint : XviD\n Duration : 2h 23mn\n Bit rate : 599 Kbps\n Width : 608 pixels\n Height : 256 pixels\n Display aspect ratio : 2.40:1\n Frame rate : 23.976 fps\n Color space : YUV\n Chroma subsampling : 4:2:0\n Bit depth : 8 bits\n Scan type : Progressive\n Compression mode : Lossy\n Bits/(Pixel*Frame) : 0.160\n Stream size : 613 MiB (87%)\n Writing library : XviD 1.2.1 (UTC 2008-12-04)\n\n Audio\n ID : 1\n Format : MPEG Audio\n Format version : Version 1\n Format profile : Layer 3\n Mode : Joint stereo\n Mode extension : MS Stereo\n Codec ID : 55\n Codec ID/Hint : MP3\n Duration : 2h 23mn\n Bit rate mode : Constant\n Bit rate : 80.0 Kbps\n Channel(s) : 2 channels\n Sampling rate : 32.0 KHz\n Compression mode : Lossy\n Stream size : 82.0 MiB (12%)\n Alignment : Aligned on interleaves\n Interleave, duration : 167 ms (4.00 video frames)\n Interleave, preload duration : 216 ms\n Title : VTS_02_1 T80 3_2ch 448Kbps DELAY 0ms\n Writing library : LAME3.99r\n Encoding settings : -m j -V 4 -q 2 -lowpass 13.5 -b 80\n","torrent":{"xt":"urn:btih:1a9c295336238a0c4535e24de8b9df135815290e","amp;dn":"ABCD_Any_Body_Can_Dance_DVDRip_XviD_1xCD_MTR_Dev_","amp;tr":["udp%3A%2F%2Ftracker.openbittorrent.com%3A80","udp%3A%2F%2Fopen.demonii.com%3A1337","udp%3A%2F%2Ftracker.coppersurfer.tk%3A6969","udp%3A%2F%2Fexodus.desync.com%3A6969"],"infoHash":"1a9c295336238a0c4535e24de8b9df135815290e","infoHashBuffer":{"type":"Buffer","data":[26,156,41,83,54,35,138,12,69,53,226,77,232,185,223,19,88,21,41,14]},"announce":[],"urlList":[]}}